<svg xmlns="http://www.w3.org/2000/svg" xmlns:xlink="http://www.w3.org/1999/xlink" width="100%" height="100%" fill-rule="evenodd" stroke-linejoin="round" stroke-miterlimit="1.414" clip-rule="evenodd" version="1.1" viewBox="0 0 36 14" xml:space="preserve"><path fill="#cb3837" fill-rule="nonzero" d="M0,0l0,12l10,0l0,2l8,0l0,-2l18,0l0,-12"/><path fill="#fff" fill-rule="nonzero" d="M2,2l0,8l4,0l0,-6l2,0l0,6l2,0l0,-8l2,0l0,10l4,0l0,-8l2,0l0,4l-2,0l0,2l4,0l0,-8l2,0l0,8l4,0l0,-6l2,0l0,6l2,0l0,-6l2,0l0,6l2,0l0,-8"/></svg>